<mxfile host="65bd71144e" modified="2020-11-03T09:22:35.680Z" agent="5.0 (Macintosh; Intel Mac OS X 10_15_7) AppleWebKit/537.36 (KHTML, like Gecko) Code/1.50.1 Chrome/83.0.4103.122 Electron/9.2.1 Safari/537.36" version="13.6.5" etag="rGLkXEI0OnEecg5drUP-">
    <diagram id="ZpLXnbq_paBLKfTdm-bj" name="Page-1">
        <mxGraphModel dx="866" dy="613" grid="1" gridSize="10" guides="1" tooltips="1" connect="1" arrows="1" fold="1" page="1" pageScale="1" pageWidth="827" pageHeight="1169" math="0" shadow="0">
            <root>
                <mxCell id="0"/>
                <mxCell id="1" parent="0"/>
                <mxCell id="5" value="" style="whiteSpace=wrap;html=1;aspect=fixed;" vertex="1" parent="1">
                    <mxGeometry x="61" y="160" width="340" height="340" as="geometry"/>
                </mxCell>
                <mxCell id="6" value="" style="whiteSpace=wrap;html=1;aspect=fixed;strokeColor=#F0F0F0;" vertex="1" parent="1">
                    <mxGeometry x="427" y="160" width="340" height="340" as="geometry"/>
                </mxCell>
                <mxCell id="7" value="NODE1" style="text;html=1;align=center;verticalAlign=middle;resizable=0;points=[];autosize=1;fontStyle=5" vertex="1" parent="1">
                    <mxGeometry x="61" y="160" width="60" height="20" as="geometry"/>
                </mxCell>
                <mxCell id="8" value="NODE2" style="text;html=1;align=center;verticalAlign=middle;resizable=0;points=[];autosize=1;fontStyle=5" vertex="1" parent="1">
                    <mxGeometry x="427" y="160" width="60" height="20" as="geometry"/>
                </mxCell>
                <mxCell id="13" value="" style="group;fillColor=#0050ef;strokeColor=#001DBC;fontColor=#ffffff;" vertex="1" connectable="0" parent="1">
                    <mxGeometry x="112" y="330" width="125" height="115" as="geometry"/>
                </mxCell>
                <mxCell id="2" value="" style="rounded=0;whiteSpace=wrap;html=1;" vertex="1" parent="13">
                    <mxGeometry width="125" height="115" as="geometry"/>
                </mxCell>
                <mxCell id="10" value="roy-nginx [:80]" style="shape=process;whiteSpace=wrap;html=1;backgroundOutline=1;" vertex="1" parent="13">
                    <mxGeometry x="2.5" y="32.5" width="120" height="60" as="geometry"/>
                </mxCell>
                <mxCell id="11" value="POD" style="text;html=1;align=center;verticalAlign=middle;resizable=0;points=[];autosize=1;fontStyle=1" vertex="1" parent="13">
                    <mxGeometry width="40" height="20" as="geometry"/>
                </mxCell>
                <mxCell id="17" value="" style="group" vertex="1" connectable="0" parent="1">
                    <mxGeometry x="447" y="350" width="125" height="115" as="geometry"/>
                </mxCell>
                <mxCell id="18" value="" style="rounded=0;whiteSpace=wrap;html=1;" vertex="1" parent="17">
                    <mxGeometry width="125" height="115" as="geometry"/>
                </mxCell>
                <mxCell id="19" value="roy-nginx [:80]" style="shape=process;whiteSpace=wrap;html=1;backgroundOutline=1;" vertex="1" parent="17">
                    <mxGeometry x="2.5" y="32.5" width="120" height="60" as="geometry"/>
                </mxCell>
                <mxCell id="20" value="POD" style="text;html=1;align=center;verticalAlign=middle;resizable=0;points=[];autosize=1;fontStyle=1" vertex="1" parent="17">
                    <mxGeometry width="40" height="20" as="geometry"/>
                </mxCell>
                <mxCell id="21" value="" style="group;strokeColor=#f0f0f0;" vertex="1" connectable="0" parent="1">
                    <mxGeometry x="609" y="190" width="125" height="115" as="geometry"/>
                </mxCell>
                <mxCell id="22" value="" style="rounded=0;whiteSpace=wrap;html=1;" vertex="1" parent="21">
                    <mxGeometry width="125" height="115" as="geometry"/>
                </mxCell>
                <mxCell id="23" value="busy-box" style="shape=process;whiteSpace=wrap;html=1;backgroundOutline=1;" vertex="1" parent="21">
                    <mxGeometry x="2.5" y="32.5" width="120" height="60" as="geometry"/>
                </mxCell>
                <mxCell id="24" value="POD" style="text;html=1;align=center;verticalAlign=middle;resizable=0;points=[];autosize=1;fontStyle=1" vertex="1" parent="21">
                    <mxGeometry width="40" height="20" as="geometry"/>
                </mxCell>
                <mxCell id="32" value="" style="group" vertex="1" connectable="0" parent="1">
                    <mxGeometry x="250" y="190" width="120" height="90" as="geometry"/>
                </mxCell>
                <mxCell id="29" value="ClusterIP" style="rounded=1;whiteSpace=wrap;html=1;strokeColor=#F0F0F0;" vertex="1" parent="32">
                    <mxGeometry width="120" height="60" as="geometry"/>
                </mxCell>
                <mxCell id="30" value="target :80" style="rounded=1;whiteSpace=wrap;html=1;strokeColor=#F0F0F0;" vertex="1" parent="32">
                    <mxGeometry x="20" y="60" width="80" height="30" as="geometry"/>
                </mxCell>
                <mxCell id="33" style="rounded=0;orthogonalLoop=1;jettySize=auto;html=1;dashed=1;" edge="1" parent="1" source="23" target="29">
                    <mxGeometry relative="1" as="geometry"/>
                </mxCell>
                <mxCell id="34" style="edgeStyle=none;rounded=0;orthogonalLoop=1;jettySize=auto;html=1;exitX=0.25;exitY=1;exitDx=0;exitDy=0;entryX=0.454;entryY=0.003;entryDx=0;entryDy=0;entryPerimeter=0;dashed=1;" edge="1" parent="1" source="30" target="2">
                    <mxGeometry relative="1" as="geometry"/>
                </mxCell>
                <mxCell id="35" style="edgeStyle=none;rounded=0;orthogonalLoop=1;jettySize=auto;html=1;exitX=0.75;exitY=1;exitDx=0;exitDy=0;entryX=0.5;entryY=0;entryDx=0;entryDy=0;dashed=1;" edge="1" parent="1" source="30" target="18">
                    <mxGeometry relative="1" as="geometry"/>
                </mxCell>
            </root>
        </mxGraphModel>
    </diagram>
</mxfile>